# xmcd
#
# Track frame offsets:
#	150
#	20378
#	43599
#	63141
#	88121
#	106116
#	126032
#	151753
#	174279
#	194933
#
# Disc length: 2868 seconds
#
# Revision: 1
# Processed by: cddbd v1.5.2PL0 Copyright (c) Steve Scherf et al.
# Submitted via: EZCDAudioConverter 8.0.2.1
#
DISCID=770b320a
DTITLE=Phạm Phương Thảo - Vol 08. Tơ vương
DYEAR=2011
DGENRE=Country
TTITLE0=Phạm Phương Thảo - Em yêu anh như yêu câu ví dặm
TTITLE1=Phạm Phương Thảo - Thơ tình cuối mùa thu
TTITLE2=Phạm Phương Thảo - Đưa em qua trận bão người
TTITLE3=Phạm Phương Thảo - Hết giận rồi thương
TTITLE4=Phạm Phương Thảo, Xuân Hảo - Nơi em gặp anh
TTITLE5=Phạm Phương Thảo - Mưa rơi
TTITLE6=Phạm Phương Thảo - Ở hai đầu nỗi nhớ
TTITLE7=Phạm Phương Thảo - Mùa chim én bay
TTITLE8=Phạm Phương Thảo - Giận mà thương
TTITLE9=Phạm Phương Thảo, Xuân Hảo -  Em vẫn đợi anh về
EXTD=
EXTT0=
EXTT1=
EXTT2=
EXTT3=
EXTT4=
EXTT5=
EXTT6=
EXTT7=
EXTT8=
EXTT9=
PLAYORDER=
